<svg width="27" height="27" viewBox="0 0 27 27" fill="none" xmlns="http://www.w3.org/2000/svg">
<path d="M13.68 12.2288C13.5675 12.2175 13.4325 12.2175 13.3087 12.2288C12.0175 12.1849 10.794 11.6402 9.89733 10.71C9.00069 9.77972 8.50133 8.53701 8.505 7.245C8.505 4.48875 10.7325 2.25 13.5 2.25C14.1552 2.23818 14.8063 2.35553 15.4162 2.59536C16.0261 2.83518 16.5827 3.19277 17.0544 3.64772C17.526 4.10267 17.9035 4.64606 18.1651 5.24688C18.4268 5.84769 18.5676 6.49416 18.5794 7.14938C18.5912 7.80459 18.4738 8.45572 18.234 9.06558C17.9942 9.67544 17.6366 10.2321 17.1817 10.7038C16.7267 11.1754 16.1833 11.5529 15.5825 11.8145C14.9817 12.0762 14.3352 12.2169 13.68 12.2288V12.2288ZM8.055 16.38C5.3325 18.2025 5.3325 21.1725 8.055 22.9838C11.1487 25.0538 16.2225 25.0538 19.3162 22.9838C22.0387 21.1613 22.0387 18.1913 19.3162 16.38C16.2337 14.3213 11.16 14.3213 8.055 16.38V16.38Z" stroke="#227C3E" stroke-width="2.5" stroke-linecap="round" stroke-linejoin="round"/>
</svg>
