<svg width="27" height="27" viewBox="0 0 27 27" fill="none" xmlns="http://www.w3.org/2000/svg">
<path d="M6.75 11.25V9C6.75 5.27625 7.875 2.25 13.5 2.25C18.5625 2.25 20.25 4.5 20.25 7.875M19.125 24.75H7.875C3.375 24.75 2.25 23.625 2.25 19.125V16.875C2.25 12.375 3.375 11.25 7.875 11.25H19.125C23.625 11.25 24.75 12.375 24.75 16.875V19.125C24.75 23.625 23.625 24.75 19.125 24.75Z" stroke="#227C3E" stroke-width="2" stroke-linecap="round" stroke-linejoin="round"/>
<path d="M13.5 20.8125C14.2459 20.8125 14.9613 20.5162 15.4887 19.9887C16.0162 19.4613 16.3125 18.7459 16.3125 18C16.3125 17.2541 16.0162 16.5387 15.4887 16.0113C14.9613 15.4838 14.2459 15.1875 13.5 15.1875C12.7541 15.1875 12.0387 15.4838 11.5113 16.0113C10.9838 16.5387 10.6875 17.2541 10.6875 18C10.6875 18.7459 10.9838 19.4613 11.5113 19.9887C12.0387 20.5162 12.7541 20.8125 13.5 20.8125Z" stroke="#227C3E" stroke-width="2" stroke-linecap="round" stroke-linejoin="round"/>
</svg>
